<?xml version="1.0" encoding="utf-8"?>
<svg viewBox="0 265 3023.2602 1102" xmlns="http://www.w3.org/2000/svg">
  <g id="layer4" style="display:inline" transform="matrix(1, 0, 0, 1, -2.645833, -2.645833)">
    <path id="path420" style="font-style:normal;font-weight:400;font-size:31.75px;font-family:'Sans Serif';fill:none;stroke:#0000ff;stroke-width:7;stroke-linecap:round;stroke-linejoin:bevel;stroke-opacity:1" d="m 136.00586,1265.3457 c 45.72005,0 91.4401,0 137.16016,0 0,-45.72 0,-91.4401 0,-137.1602 -45.72006,0 -91.44011,0 -137.16016,0 0,45.7201 0,91.4402 0,137.1602 z"/>
    <path id="path500" style="font-style:normal;font-weight:400;font-size:31.75px;font-family:'Sans Serif';fill:none;stroke:#0000ff;stroke-width:7;stroke-linecap:round;stroke-linejoin:bevel;stroke-opacity:1" d="m 858.32031,1265.3457 c 24.55339,0 49.10677,0 73.66016,0 0,-53.1302 0,-106.2604 0,-159.3906 -24.55339,0 -49.10677,0 -73.66016,0 0,53.1302 0,106.2604 0,159.3906 z"/>
    <path id="path636" style="font-style:normal;font-weight:400;font-size:31.75px;font-family:'Sans Serif';fill:none;stroke:#0000ff;stroke-width:7;stroke-linecap:round;stroke-linejoin:bevel;stroke-opacity:1" d="m 445.56445,884.3457 c 45.72201,0 91.44401,0 137.16602,0 0,-45.72005 0,-91.4401 0,-137.16015 -45.72201,0 -91.44401,0 -137.16602,0 0,45.72005 0,91.4401 0,137.16015 z"/>
    <path id="path764" style="font-style:normal;font-weight:400;font-size:31.75px;font-family:'Sans Serif';fill:none;stroke:#0000ff;stroke-width:7;stroke-linecap:round;stroke-linejoin:bevel;stroke-opacity:1" d="m 1207.5762,884.3457 c 45.7168,0 91.4336,0 137.1504,0 0,-45.72005 0,-91.4401 0,-137.16015 -45.7168,0 -91.4336,0 -137.1504,0 0,45.72005 0,91.4401 0,137.16015 z"/>
    <path id="path828" style="font-style:normal;font-weight:400;font-size:31.75px;font-family:'Sans Serif';fill:none;stroke:#0000ff;stroke-width:7;stroke-linecap:round;stroke-linejoin:bevel;stroke-opacity:1" d="m 1858.4453,1265.3457 c 24.5534,0 49.1068,0 73.6602,0 0,-53.1302 0,-106.2604 0,-159.3906 -24.5534,0 -49.1068,0 -73.6602,0 0,53.1302 0,106.2604 0,159.3906 z"/>
    <path id="path876" style="font-style:normal;font-weight:400;font-size:31.75px;font-family:'Sans Serif';fill:none;stroke:#0000ff;stroke-width:7;stroke-linecap:round;stroke-linejoin:bevel;stroke-opacity:1" d="m 2755.3848,1265.3457 c 53.6569,0 107.3138,0 160.9707,0 0,-45.72 0,-91.4401 0,-137.1602 -53.6569,0 -107.3138,0 -160.9707,0 0,45.7201 0,91.4402 0,137.1602 z"/>
    <path id="path988" style="font-style:normal;font-weight:400;font-size:31.75px;font-family:'Sans Serif';fill:none;stroke:#0000ff;stroke-width:7;stroke-linecap:round;stroke-linejoin:bevel;stroke-opacity:1" d="m 1969.5762,884.3457 c 45.7168,0 91.4336,0 137.1504,0 0,-45.72005 0,-91.4401 0,-137.16015 -45.7168,0 -91.4336,0 -137.1504,0 0,45.72005 0,91.4401 0,137.16015 z"/>
    <path id="path1384" style="font-style:normal;font-weight:400;font-size:31.75px;font-family:'Sans Serif';fill:none;stroke:#0000ff;stroke-width:7;stroke-linecap:round;stroke-linejoin:bevel;stroke-opacity:1" d="m 874.19531,503.3457 c 45.72005,0 91.44011,0 137.16019,0 0,-45.72005 0,-91.4401 0,-137.16015 -45.72008,0 -91.44014,0 -137.16019,0 0,45.72005 0,91.4401 0,137.16015 z"/>
    <path id="path1576" style="font-style:normal;font-weight:400;font-size:31.75px;font-family:'Sans Serif';fill:none;stroke:#0000ff;stroke-width:7;stroke-linecap:round;stroke-linejoin:bevel;stroke-opacity:1" d="m 1636.1953,503.3457 c 45.7201,0 91.4401,0 137.1602,0 0,-45.72005 0,-91.4401 0,-137.16015 -45.7201,0 -91.4401,0 -137.1602,0 0,45.72005 0,91.4401 0,137.16015 z"/>
    <path id="path1656" style="font-style:normal;font-weight:400;font-size:31.75px;font-family:'Sans Serif';fill:none;stroke:#0000ff;stroke-width:7;stroke-linecap:round;stroke-linejoin:bevel;stroke-opacity:1" d="m 2731.5645,693.8457 c 45.7207,0 91.4414,0 137.1621,0 0,-45.72005 0,-91.4401 0,-137.16015 -45.7207,0 -91.4414,0 -137.1621,0 0,45.72005 0,91.4401 0,137.16015 z"/>
    <path id="path1672" style="font-style:normal;font-weight:400;font-size:31.75px;font-family:'Sans Serif';fill:none;stroke:#0000ff;stroke-width:7;stroke-linecap:round;stroke-linejoin:bevel;stroke-opacity:1" d="m 2207.6953,503.3457 c 45.7201,0 91.4401,0 137.1602,0 0,-45.72005 0,-91.4401 0,-137.16015 -45.7201,0 -91.4401,0 -137.1602,0 0,45.72005 0,91.4401 0,137.16015 z"/>
    <path id="path1256" style="font-style:normal;font-weight:400;font-size:31.75px;font-family:'Sans Serif';display:inline;fill:none;stroke:#0000ff;stroke-width:7;stroke-linecap:round;stroke-linejoin:bevel;stroke-opacity:1" d="m 112.19531,503.3457 c 45.72005,0 91.44011,0 137.16016,0 0,-45.72005 0,-91.4401 0,-137.16015 -45.72005,0 -91.44011,0 -137.16016,0 0,45.72005 0,91.4401 0,137.16015 z"/>
  </g>
  <g id="layer5" style="display:inline" transform="matrix(1, 0, 0, 1, -2.645833, -2.645833)">
    <path id="path484" style="font-style:normal;font-weight:400;font-size:31.75px;font-family:'Sans Serif';fill:none;stroke:#0000ff;stroke-width:7;stroke-linecap:round;stroke-linejoin:bevel;stroke-opacity:1" d="m 1326.6348,1265.3457 c 45.7207,0 91.4414,0 137.1621,0 0,-45.72 0,-91.4401 0,-137.1602 -45.7207,0 -91.4414,0 -137.1621,0 0,45.7201 0,91.4402 0,137.1602 z"/>
    <path id="path612" style="font-style:normal;font-weight:400;font-size:31.75px;font-family:'Sans Serif';fill:none;stroke:#0000ff;stroke-width:7;stroke-linecap:round;stroke-linejoin:bevel;stroke-opacity:1" d="m 136.00586,884.3457 c 61.597,0 123.19401,0 184.79102,0 -10e-6,-45.72005 0,-91.4401 0,-137.16015 -61.59701,0 -123.19402,0 -184.79102,0 0,45.72005 0,91.4401 0,137.16015 z"/>
    <path id="path748" style="font-style:normal;font-weight:400;font-size:31.75px;font-family:'Sans Serif';fill:none;stroke:#0000ff;stroke-width:7;stroke-linecap:round;stroke-linejoin:bevel;stroke-opacity:1" d="m 1017.0762,884.3457 c 45.7168,0 91.4336,0 137.1504,0 0,-45.72005 0,-91.4401 0,-137.16015 -45.7168,0 -91.4336,0 -137.1504,0 0,45.72005 0,91.4401 0,137.16015 z"/>
    <path id="path780" style="font-style:normal;font-weight:400;font-size:31.75px;font-family:'Sans Serif';fill:none;stroke:#0000ff;stroke-width:7;stroke-linecap:round;stroke-linejoin:bevel;stroke-opacity:1" d="m 1398.0762,884.3457 c 45.7168,0 91.4336,0 137.1504,0 0,-45.72005 0,-91.4401 0,-137.16015 -45.7168,0 -91.4336,0 -137.1504,0 0,45.72005 0,91.4401 0,137.16015 z"/>
    <path id="path844" style="font-style:normal;font-weight:400;font-size:31.75px;font-family:'Sans Serif';fill:none;stroke:#0000ff;stroke-width:7;stroke-linecap:round;stroke-linejoin:bevel;stroke-opacity:1" d="m 2207.6953,1265.3457 c 172.7201,0 345.4401,0 518.1602,0 0,-45.72 0,-91.4401 0,-137.1602 -172.7201,0 -345.4401,0 -518.1602,0 0,45.7201 0,91.4402 0,137.1602 z"/>
    <path id="path908" style="font-style:normal;font-weight:400;font-size:31.75px;font-family:'Sans Serif';fill:none;stroke:#0000ff;stroke-width:7;stroke-linecap:round;stroke-linejoin:bevel;stroke-opacity:1" d="m 1683.8262,1074.8457 c 45.7168,0 91.4336,0 137.1504,0 0,-45.72 0,-91.4401 0,-137.16015 -45.7168,0 -91.4336,0 -137.1504,0 0,45.72005 0,91.44015 0,137.16015 z"/>
    <path id="path1288" style="font-style:normal;font-weight:400;font-size:31.75px;font-family:'Sans Serif';fill:none;stroke:#0000ff;stroke-width:7;stroke-linecap:round;stroke-linejoin:bevel;stroke-opacity:1" d="m 493.19531,503.3457 c 45.72005,0 91.44011,0 137.16016,0 0,-45.72005 0,-91.4401 0,-137.16015 -45.72005,0 -91.44011,0 -137.16016,0 0,45.72005 0,91.4401 0,137.16015 z"/>
    <path id="path1560" style="font-style:normal;font-weight:400;font-size:31.75px;font-family:'Sans Serif';fill:none;stroke:#0000ff;stroke-width:7;stroke-linecap:round;stroke-linejoin:bevel;stroke-opacity:1" d="m 2112.4453,693.8457 c 45.7201,0 91.4401,0 137.1602,0 0,-45.72005 0,-91.4401 0,-137.16015 -45.7201,0 -91.4401,0 -137.1602,0 0,45.72005 0,91.4401 0,137.16015 z"/>
    <path id="path1592" style="font-style:normal;font-weight:400;font-size:31.75px;font-family:'Sans Serif';fill:none;stroke:#0000ff;stroke-width:7;stroke-linecap:round;stroke-linejoin:bevel;stroke-opacity:1" d="m 1826.6953,503.3457 c 45.7201,0 91.4401,0 137.1602,0 0,-45.72005 0,-91.4401 0,-137.16015 -45.7201,0 -91.4401,0 -137.1602,0 0,45.72005 0,91.4401 0,137.16015 z"/>
    <path id="path452" style="font-style:normal;font-weight:400;font-size:31.75px;font-family:'Sans Serif';display:inline;fill:none;stroke:#0000ff;stroke-width:7;stroke-linecap:round;stroke-linejoin:bevel;stroke-opacity:1" d="m 612.25781,1265.3457 c 45.72005,0 91.44011,0 137.16016,0 0,-45.72 0,-91.4401 0,-137.1602 -45.72005,0 -91.44011,0 -137.16016,0 0,45.7201 0,91.4402 0,137.1602 z"/>
    <path id="path1416" style="font-style:normal;font-weight:400;font-size:31.75px;font-family:'Sans Serif';display:inline;fill:none;stroke:#0000ff;stroke-width:7;stroke-linecap:round;stroke-linejoin:bevel;stroke-opacity:1" d="m 1255.1953,503.3457 c 45.7201,0 91.4401,0 137.1602,0 0,-45.72005 0,-91.4401 0,-137.16015 -45.7201,0 -91.4401,0 -137.1602,0 0,45.72005 0,91.4401 0,137.16015 z"/>
    <path id="path1704" style="font-style:normal;font-weight:400;font-size:31.75px;font-family:'Sans Serif';display:inline;fill:none;stroke:#0000ff;stroke-width:7;stroke-linecap:round;stroke-linejoin:bevel;stroke-opacity:1" d="m 2588.6953,503.3457 c 2.1165,0 4.2331,0 6.3496,0 0.4003,0.46601 0.987,0.85479 1.2696,1.36953 0,6.95365 0,13.9073 0,20.86094 24.554,0 49.108,0 73.6621,0 0,-6.98698 0,-13.97396 0,-20.96094 0.466,-0.40024 0.8547,-0.98694 1.3695,-1.26953 54.1535,0 108.307,0 162.4605,0 0.4003,0.46601 0.987,0.85479 1.2696,1.36953 0,6.95365 0,13.9073 0,20.86094 24.5534,0 49.1067,0 73.6601,0 0,-6.98698 0,-13.97396 0,-20.96094 0.466,-0.40024 0.8548,-0.98694 1.3696,-1.26953 2.0832,0 4.1664,0 6.2496,0 0,-45.72005 0,-91.4401 0,-137.16015 -109.2201,0 -218.4401,0 -327.6602,0 0,45.72005 0,91.4401 0,137.16015 z"/>
  </g>
  <g id="layer6" style="display:inline" transform="matrix(1, 0, 0, 1, -2.645833, -2.645833)">
    <path id="path436" style="font-style:normal;font-weight:400;font-size:31.75px;font-family:'Sans Serif';fill:none;stroke:#0000ff;stroke-width:7;stroke-linecap:round;stroke-linejoin:bevel;stroke-opacity:1" d="m 374.13477,1265.3457 c 45.7207,0 91.4414,0 137.16211,0 -10e-6,-45.72 0,-91.4401 0,-137.1602 -45.72071,0 -91.44141,0 -137.16211,0 0,45.7201 0,91.4402 0,137.1602 z"/>
    <path id="path700" style="font-style:normal;font-weight:400;font-size:31.75px;font-family:'Sans Serif';fill:none;stroke:#0000ff;stroke-width:7;stroke-linecap:round;stroke-linejoin:bevel;stroke-opacity:1" d="m 1112.3262,1074.8457 c 45.7168,0 91.4336,0 137.1504,0 0,-45.72 0,-91.4401 0,-137.16015 -45.7168,0 -91.4336,0 -137.1504,0 0,45.72005 0,91.44015 0,137.16015 z"/>
    <path id="path1120" style="font-style:normal;font-weight:400;font-size:31.75px;font-family:'Sans Serif';fill:none;stroke:#0000ff;stroke-width:7;stroke-linecap:round;stroke-linejoin:bevel;stroke-opacity:1" d="m 2350.5762,884.3457 c 45.7168,0 91.4336,0 137.1504,0 0,-45.72005 0,-91.4401 0,-137.16015 -45.7168,0 -91.4336,0 -137.1504,0 0,45.72005 0,91.4401 0,137.16015 z"/>
    <path id="path1272" style="font-style:normal;font-weight:400;font-size:31.75px;font-family:'Sans Serif';fill:none;stroke:#0000ff;stroke-width:7;stroke-linecap:round;stroke-linejoin:bevel;stroke-opacity:1" d="m 302.69531,503.3457 c 45.72005,0 91.44011,0 137.16016,0 0,-45.72005 0,-91.4401 0,-137.16015 -45.72005,0 -91.44011,0 -137.16016,0 0,45.72005 0,91.4401 0,137.16015 z"/>
    <path id="path1320" style="font-style:normal;font-weight:400;font-size:31.75px;font-family:'Sans Serif';fill:none;stroke:#0000ff;stroke-width:7;stroke-linecap:round;stroke-linejoin:bevel;stroke-opacity:1" d="m 778.94531,693.8457 c 45.72005,0 91.44011,0 137.16016,0 0,-45.72005 0,-91.4401 0,-137.16015 -45.72005,0 -91.44011,0 -137.16016,0 0,45.72005 0,91.4401 0,137.16015 z"/>
    <path id="path1432" style="font-style:normal;font-weight:400;font-size:31.75px;font-family:'Sans Serif';fill:none;stroke:#0000ff;stroke-width:7;stroke-linecap:round;stroke-linejoin:bevel;stroke-opacity:1" d="m 1445.6953,503.3457 c 45.7201,0 91.4401,0 137.1602,0 0,-45.72005 0,-91.4401 0,-137.16015 -45.7201,0 -91.4401,0 -137.1602,0 0,45.72005 0,91.4401 0,137.16015 z"/>
    <path id="path1608" style="font-style:normal;font-weight:400;font-size:31.75px;font-family:'Sans Serif';fill:none;stroke:#0000ff;stroke-width:7;stroke-linecap:round;stroke-linejoin:bevel;stroke-opacity:1" d="m 2017.1953,503.3457 c 45.7201,0 91.4401,0 137.1602,0 0,-45.72005 0,-91.4401 0,-137.16015 -45.7201,0 -91.4401,0 -137.1602,0 0,45.72005 0,91.4401 0,137.16015 z"/>
    <path id="path812" style="font-style:normal;font-weight:400;font-size:31.75px;font-family:'Sans Serif';display:inline;fill:none;stroke:#0000ff;stroke-width:7;stroke-linecap:round;stroke-linejoin:bevel;stroke-opacity:1" d="m 2017.1953,1265.3457 c 53.6569,0 107.3138,0 160.9707,0 0,-45.72 0,-91.4401 0,-137.1602 -53.6569,0 -107.3138,0 -160.9707,0 0,45.7201 0,91.4402 0,137.1602 z"/>
  </g>
  <g id="layer7" style="display:inline" transform="matrix(1, 0, 0, 1, -2.645833, -2.645833)">
    <path id="path668" style="font-style:normal;font-weight:400;font-size:31.75px;font-family:'Sans Serif';fill:none;stroke:#0000ff;stroke-width:7;stroke-linecap:round;stroke-linejoin:bevel;stroke-opacity:1" d="m 731.32031,1074.8457 c 45.72005,0 91.44011,0 137.16016,0 0,-45.72 0,-91.4401 0,-137.16015 -45.72005,0 -91.44011,0 -137.16016,0 0,45.72005 0,91.44015 0,137.16015 z"/>
    <path id="path924" style="font-style:normal;font-weight:400;font-size:31.75px;font-family:'Sans Serif';fill:none;stroke:#0000ff;stroke-width:7;stroke-linecap:round;stroke-linejoin:bevel;stroke-opacity:1" d="m 1874.3262,1074.8457 c 45.7168,0 91.4336,0 137.1504,0 0,-45.72 0,-91.4401 0,-137.16015 -45.7168,0 -91.4336,0 -137.1504,0 0,45.72005 0,91.44015 0,137.16015 z"/>
    <path id="path1036" style="font-style:normal;font-weight:400;font-size:31.75px;font-family:'Sans Serif';fill:none;stroke:#0000ff;stroke-width:7;stroke-linecap:round;stroke-linejoin:bevel;stroke-opacity:1" d="m 2517.2559,1074.8457 c 2.1165,0 4.233,0 6.3496,0 0.4002,0.466 0.9869,0.8548 1.2695,1.3695 0,6.9537 0,13.9073 0,20.861 24.554,0 49.1081,0 73.6621,0 0,-6.987 0,-13.974 0,-20.961 0.466,-0.4002 0.8548,-0.9869 1.3695,-1.2695 54.1529,0 108.3058,0 162.4586,0 0.4003,0.466 0.987,0.8548 1.2696,1.3695 0,6.9537 0,13.9073 0,20.861 24.554,0 49.108,0 73.6621,0 0,-6.987 0,-13.974 0,-20.961 0.466,-0.4002 0.8548,-0.9869 1.3695,-1.2695 25.8964,0 51.7927,0 77.6891,0 0,-45.72 0,-91.4401 0,-137.16015 -133.0332,0 -266.0664,0 -399.0996,0 0,45.72005 0,91.44015 0,137.16015 z"/>
    <path id="path1224" style="font-style:normal;font-weight:400;font-size:31.75px;font-family:'Sans Serif';fill:none;stroke:#0000ff;stroke-width:7;stroke-linecap:round;stroke-linejoin:bevel;stroke-opacity:1" d="m 397.94531,693.8457 c 45.72005,0 91.44011,0 137.16016,0 0,-45.72005 0,-91.4401 0,-137.16015 -45.72005,0 -91.44011,0 -137.16016,0 0,45.72005 0,91.4401 0,137.16015 z"/>
    <path id="path1368" style="font-style:normal;font-weight:400;font-size:31.75px;font-family:'Sans Serif';fill:none;stroke:#0000ff;stroke-width:7;stroke-linecap:round;stroke-linejoin:bevel;stroke-opacity:1" d="m 1350.4453,693.8457 c 45.7201,0 91.4401,0 137.1602,0 0,-45.72005 0,-91.4401 0,-137.16015 -45.7201,0 -91.4401,0 -137.1602,0 0,45.72005 0,91.4401 0,137.16015 z"/>
    <path id="path1688" style="font-style:normal;font-weight:400;font-size:31.75px;font-family:'Sans Serif';fill:none;stroke:#0000ff;stroke-width:7;stroke-linecap:round;stroke-linejoin:bevel;stroke-opacity:1" d="m 2398.1953,503.3457 c 45.7201,0 91.4401,0 137.1602,0 0,-45.72005 0,-91.4401 0,-137.16015 -45.7201,0 -91.4401,0 -137.1602,0 0,45.72005 0,91.4401 0,137.16015 z"/>
  </g>
  <g id="layer8" style="display:inline" transform="matrix(1, 0, 0, 1, -2.645833, -2.645833)">
    <path id="path596" style="font-style:normal;font-weight:400;font-size:31.75px;font-family:'Sans Serif';fill:none;stroke:#0000ff;stroke-width:7;stroke-linecap:round;stroke-linejoin:bevel;stroke-opacity:1" d="m 540.82031,1074.8457 c 45.72005,0 91.44011,0 137.16016,0 0,-45.72 0,-91.4401 0,-137.16015 -45.72005,0 -91.44011,0 -137.16016,0 0,45.72005 0,91.44015 0,137.16015 z"/>
    <path id="path732" style="font-style:normal;font-weight:400;font-size:31.75px;font-family:'Sans Serif';fill:none;stroke:#0000ff;stroke-width:7;stroke-linecap:round;stroke-linejoin:bevel;stroke-opacity:1" d="m 826.57031,884.3457 c 45.72005,0 91.44011,0 137.16016,0 0,-45.72005 0,-91.4401 0,-137.16015 -45.72005,0 -91.44011,0 -137.16016,0 0,45.72005 0,91.4401 0,137.16015 z"/>
    <path id="path892" style="font-style:normal;font-weight:400;font-size:31.75px;font-family:'Sans Serif';fill:none;stroke:#0000ff;stroke-width:7;stroke-linecap:round;stroke-linejoin:bevel;stroke-opacity:1" d="m 1493.3262,1074.8457 c 45.7168,0 91.4336,0 137.1504,0 0,-45.72 0,-91.4401 0,-137.16015 -45.7168,0 -91.4336,0 -137.1504,0 0,45.72005 0,91.44015 0,137.16015 z"/>
    <path id="path1020" style="font-style:normal;font-weight:400;font-size:31.75px;font-family:'Sans Serif';fill:none;stroke:#0000ff;stroke-width:7;stroke-linecap:round;stroke-linejoin:bevel;stroke-opacity:1" d="m 2255.3262,1074.8457 c 45.7168,0 91.4336,0 137.1504,0 0,-45.72 0,-91.4401 0,-137.16015 -45.7168,0 -91.4336,0 -137.1504,0 0,45.72005 0,91.44015 0,137.16015 z"/>
    <path id="path1208" style="font-style:normal;font-weight:400;font-size:31.75px;font-family:'Sans Serif';fill:none;stroke:#0000ff;stroke-width:7;stroke-linecap:round;stroke-linejoin:bevel;stroke-opacity:1" d="m 159.81445,693.8457 c 45.72071,0 91.44141,0 137.16211,0 0,-45.72005 0,-91.4401 0,-137.16015 -45.7207,0 -91.4414,0 -137.16211,0 0,45.72005 0,91.4401 0,137.16015 z"/>
    <path id="path1304" style="font-style:normal;font-weight:400;font-size:31.75px;font-family:'Sans Serif';fill:none;stroke:#0000ff;stroke-width:7;stroke-linecap:round;stroke-linejoin:bevel;stroke-opacity:1" d="m 683.69531,503.3457 c 45.72005,0 91.44011,0 137.16016,0 0,-45.72005 0,-91.4401 0,-137.16015 -45.72005,0 -91.44011,0 -137.16016,0 0,45.72005 0,91.4401 0,137.16015 z"/>
    <path id="path1352" style="font-style:normal;font-weight:400;font-size:31.75px;font-family:'Sans Serif';fill:none;stroke:#0000ff;stroke-width:7;stroke-linecap:round;stroke-linejoin:bevel;stroke-opacity:1" d="m 1159.9453,693.8457 c 45.7201,0 91.4401,0 137.1602,0 0,-45.72005 0,-91.4401 0,-137.16015 -45.7201,0 -91.4401,0 -137.1602,0 0,45.72005 0,91.4401 0,137.16015 z"/>
    <path id="path1544" style="font-style:normal;font-weight:400;font-size:31.75px;font-family:'Sans Serif';fill:none;stroke:#0000ff;stroke-width:7;stroke-linecap:round;stroke-linejoin:bevel;stroke-opacity:1" d="m 1921.9453,693.8457 c 45.7201,0 91.4401,0 137.1602,0 0,-45.72005 0,-91.4401 0,-137.16015 -45.7201,0 -91.4401,0 -137.1602,0 0,45.72005 0,91.4401 0,137.16015 z"/>
    <path id="path1640" style="font-style:normal;font-weight:400;font-size:31.75px;font-family:'Sans Serif';fill:none;stroke:#0000ff;stroke-width:7;stroke-linecap:round;stroke-linejoin:bevel;stroke-opacity:1" d="m 2493.4453,693.8457 c 45.7201,0 91.4401,0 137.1602,0 0,-45.72005 0,-91.4401 0,-137.16015 -45.7201,0 -91.4401,0 -137.1602,0 0,45.72005 0,91.4401 0,137.16015 z"/>
  </g>
  <g id="layer9" style="display:inline" transform="matrix(1, 0, 0, 1, -2.645833, -2.645833)">
    <path id="path516" style="font-style:normal;font-weight:400;font-size:31.75px;font-family:'Sans Serif';fill:none;stroke:#0000ff;stroke-width:7;stroke-linecap:round;stroke-linejoin:bevel;stroke-opacity:1" d="m 136.00586,1074.8457 c 2.11654,0 4.23307,0 6.34961,0 0.40024,0.466 0.98694,0.8548 1.26953,1.3695 0,6.9537 0,13.9073 0,20.861 24.55404,0 49.10807,0 73.66211,0 0,-6.987 0,-13.974 0,-20.961 0.46601,-0.4002 0.85479,-0.9869 1.36953,-1.2695 54.15287,0 108.30573,0 162.45859,0 0.40025,0.466 0.98695,0.8548 1.26954,1.3695 0,6.9537 0,13.9073 0,20.861 24.55403,0 49.10807,0 73.66211,0 0,-6.987 -10e-6,-13.974 0,-20.961 0.466,-0.4002 0.85478,-0.9869 1.36953,-1.2695 10.02005,0 20.0401,0 30.06015,0 0,-45.72 0,-91.4401 0,-137.16015 -117.1569,0 -234.3138,0 -351.4707,0 0,45.72005 0,91.44015 0,137.16015 z"/>
    <path id="path716" style="font-style:normal;font-weight:400;font-size:31.75px;font-family:'Sans Serif';fill:none;stroke:#0000ff;stroke-width:7;stroke-linecap:round;stroke-linejoin:bevel;stroke-opacity:1" d="m 1302.8262,1074.8457 c 45.7168,0 91.4336,0 137.1504,0 0,-45.72 0,-91.4401 0,-137.16015 -45.7168,0 -91.4336,0 -137.1504,0 0,45.72005 0,91.44015 0,137.16015 z"/>
    <path id="path940" style="font-style:normal;font-weight:400;font-size:31.75px;font-family:'Sans Serif';fill:none;stroke:#0000ff;stroke-width:7;stroke-linecap:round;stroke-linejoin:bevel;stroke-opacity:1" d="m 2064.8262,1074.8457 c 45.7168,0 91.4336,0 137.1504,0 0,-45.72 0,-91.4401 0,-137.16015 -45.7168,0 -91.4336,0 -137.1504,0 0,45.72005 0,91.44015 0,137.16015 z"/>
    <path id="path1400" style="font-style:normal;font-weight:400;font-size:31.75px;font-family:'Sans Serif';fill:none;stroke:#0000ff;stroke-width:7;stroke-linecap:round;stroke-linejoin:bevel;stroke-opacity:1" d="m 1064.6953,503.3457 c 45.7201,0 91.4401,0 137.1602,0 0,-45.72005 0,-91.4401 0,-137.16015 -45.7201,0 -91.4401,0 -137.1602,0 0,45.72005 0,91.4401 0,137.16015 z"/>
    <path id="path1528" style="font-style:normal;font-weight:400;font-size:31.75px;font-family:'Sans Serif';fill:none;stroke:#0000ff;stroke-width:7;stroke-linecap:round;stroke-linejoin:bevel;stroke-opacity:1" d="m 1731.4453,693.8457 c 45.7201,0 91.4401,0 137.1602,0 0,-45.72005 0,-91.4401 0,-137.16015 -45.7201,0 -91.4401,0 -137.1602,0 0,45.72005 0,91.4401 0,137.16015 z"/>
    <path id="path1624" style="font-style:normal;font-weight:400;font-size:31.75px;font-family:'Sans Serif';fill:none;stroke:#0000ff;stroke-width:7;stroke-linecap:round;stroke-linejoin:bevel;stroke-opacity:1" d="m 2302.9453,693.8457 c 45.7201,0 91.4401,0 137.1602,0 0,-45.72005 0,-91.4401 0,-137.16015 -45.7201,0 -91.4401,0 -137.1602,0 0,45.72005 0,91.4401 0,137.16015 z"/>
  </g>
  <g id="layer10" style="display:inline" transform="matrix(1, 0, 0, 1, -2.645833, -2.645833)">
    <path id="path652" style="font-style:normal;font-weight:400;font-size:31.75px;font-family:'Sans Serif';fill:none;stroke:#0000ff;stroke-width:7;stroke-linecap:round;stroke-linejoin:bevel;stroke-opacity:1" d="m 636.07031,884.3457 c 45.72005,0 91.44011,0 137.16016,0 0,-45.72005 0,-91.4401 0,-137.16015 -45.72005,0 -91.44011,0 -137.16016,0 0,45.72005 0,91.4401 0,137.16015 z"/>
    <path id="path972" style="font-style:normal;font-weight:400;font-size:31.75px;font-family:'Sans Serif';fill:none;stroke:#0000ff;stroke-width:7;stroke-linecap:round;stroke-linejoin:bevel;stroke-opacity:1" d="m 1779.0762,884.3457 c 45.7168,0 91.4336,0 137.1504,0 0,-45.72005 0,-91.4401 0,-137.16015 -45.7168,0 -91.4336,0 -137.1504,0 0,45.72005 0,91.4401 0,137.16015 z"/>
    <path id="path1136" style="font-style:normal;font-weight:400;font-size:31.75px;font-family:'Sans Serif';fill:none;stroke:#0000ff;stroke-width:7;stroke-linecap:round;stroke-linejoin:bevel;stroke-opacity:1" d="m 2572.5059,906.57617 c 24.5533,0 49.1067,0 73.6601,0 0,-6.98698 0,-13.97396 0,-20.96094 0.466,-0.40024 0.8548,-0.98694 1.3695,-1.26953 54.1536,0 108.3071,0 162.4606,0 0.4002,0.46601 0.9869,0.85479 1.2695,1.36953 0,6.95365 0,13.9073 0,20.86094 24.5534,0 49.1068,0 73.6602,0 0,-53.13021 0,-106.26041 0,-159.39062 -24.5534,0 -49.1068,0 -73.6602,0 0,2.36979 0,4.73958 0,7.10937 -0.466,0.40025 -0.8548,0.98695 -1.3695,1.26953 -3.7766,0 -7.5531,0 -11.3297,0 -0.4002,-0.46601 -0.9869,-0.85478 -1.2695,-1.36953 0,-2.33646 0,-4.67291 0,-7.00937 -45.7207,0 -91.4414,0 -137.1621,0 0,2.36979 0,4.73958 0,7.10937 -0.466,0.40025 -0.8548,0.98695 -1.3696,1.26953 -3.7765,0 -7.5531,0 -11.3297,0 -0.4002,-0.46601 -0.9869,-0.85478 -1.2695,-1.36953 0,-2.33646 0,-4.67291 0,-7.00937 -24.5534,0 -49.1068,0 -73.6601,0 0,53.13021 0,106.26041 0,159.39062 z"/>
    <path id="path1336" style="font-style:normal;font-weight:400;font-size:31.75px;font-family:'Sans Serif';fill:none;stroke:#0000ff;stroke-width:7;stroke-linecap:round;stroke-linejoin:bevel;stroke-opacity:1" d="m 969.44531,693.8457 c 45.72009,0 91.44009,0 137.16019,0 0,-45.72005 0,-91.4401 0,-137.16015 -45.7201,0 -91.4401,0 -137.16019,0 0,45.72005 0,91.4401 0,137.16015 z"/>
  </g>
  <g id="layer11" style="display:inline" transform="matrix(1, 0, 0, 1, -2.645833, -2.645833)">
    <path id="path684" style="font-style:normal;font-weight:400;font-size:31.75px;font-family:'Sans Serif';fill:none;stroke:#0000ff;stroke-width:7;stroke-linecap:round;stroke-linejoin:bevel;stroke-opacity:1" d="m 921.82031,1074.8457 c 45.71875,0 91.43749,0 137.15629,0 0,-45.72 0,-91.4401 0,-137.16015 -45.7188,0 -91.43754,0 -137.15629,0 0,45.72005 0,91.44015 0,137.16015 z"/>
    <path id="path956" style="font-style:normal;font-weight:400;font-size:31.75px;font-family:'Sans Serif';fill:none;stroke:#0000ff;stroke-width:7;stroke-linecap:round;stroke-linejoin:bevel;stroke-opacity:1" d="m 1588.5762,884.3457 c 45.7168,0 91.4336,0 137.1504,0 0,-45.72005 0,-91.4401 0,-137.16015 -45.7168,0 -91.4336,0 -137.1504,0 0,45.72005 0,91.4401 0,137.16015 z"/>
    <path id="path1004" style="font-style:normal;font-weight:400;font-size:31.75px;font-family:'Sans Serif';fill:none;stroke:#0000ff;stroke-width:7;stroke-linecap:round;stroke-linejoin:bevel;stroke-opacity:1" d="m 2160.0762,884.3457 c 45.7168,0 91.4336,0 137.1504,0 0,-45.72005 0,-91.4401 0,-137.16015 -45.7168,0 -91.4336,0 -137.1504,0 0,45.72005 0,91.4401 0,137.16015 z"/>
    <path id="path1240" style="font-style:normal;font-weight:400;font-size:31.75px;font-family:'Sans Serif';fill:none;stroke:#0000ff;stroke-width:7;stroke-linecap:round;stroke-linejoin:bevel;stroke-opacity:1" d="m 588.44531,693.8457 c 45.72005,0 91.44011,0 137.16016,0 0,-45.72005 0,-91.4401 0,-137.16015 -45.72005,0 -91.44011,0 -137.16016,0 0,45.72005 0,91.4401 0,137.16015 z"/>
    <path id="path1512" style="font-style:normal;font-weight:400;font-size:31.75px;font-family:'Sans Serif';fill:none;stroke:#0000ff;stroke-width:7;stroke-linecap:round;stroke-linejoin:bevel;stroke-opacity:1" d="m 1540.9453,693.8457 c 45.7201,0 91.4401,0 137.1602,0 0,-45.72005 0,-91.4401 0,-137.16015 -45.7201,0 -91.4401,0 -137.1602,0 0,45.72005 0,91.4401 0,137.16015 z"/>
  </g>
  <g id="layer2" style="display: inline;" transform="matrix(1, 0, 0, 0.807211, -2.645833, 261.744881)">
    <path fill-rule="evenodd" vector-effect="none" d="M 3022.396 31.546 C 3022.406 17.516 3011.026 6.146 2996.996 6.146 L 31.546 6.146 C 17.526 6.146 6.156 17.516 6.146 31.546 L 6.146 1345.986 C 6.156 1360.016 17.526 1371.386 31.546 1371.386 L 31.546 1371.396 L 2997.006 1371.396 C 3011.026 1371.396 3022.396 1360.016 3022.406 1345.996 L 3022.406 1345.986 L 3022.396 31.546 Z" id="path304" style="font-style:normal;font-weight:400;font-size:31.75px;font-family:'Sans Serif';display:inline;fill:none;stroke:#ff0000;stroke-width:7;stroke-linecap:round;stroke-linejoin:bevel;stroke-opacity:1"/>
  </g>
</svg>